<?xml version="1.0" encoding="utf-8"?>
<!-- Generator: Adobe Illustrator 21.0.2, SVG Export Plug-In . SVG Version: 6.00 Build 0)  -->
<svg version="1.1" id="Layer_1" xmlns="http://www.w3.org/2000/svg" xmlns:xlink="http://www.w3.org/1999/xlink" x="0px" y="0px"
	 viewBox="0 0 32 32" style="enable-background:new 0 0 32 32;" xml:space="preserve">
<style type="text/css">
	.st0{fill:#2A3D94;}
</style>
<path class="st0" d="M16.7,10.8c-0.1,0-0.2,0-0.2,0c-1.9,0-3.4,1.6-3.4,3.5v1h-0.2c-0.3,0-0.6,0.4-0.6,0.8v5.2
	c0,0.4,0.3,0.8,0.6,0.8h7.5c0.3,0,0.6-0.4,0.6-0.8v-5.2c0-0.4-0.3-0.8-0.6-0.8h-0.2v-1C20.1,12.5,18.6,10.9,16.7,10.8z M17.3,18.8
	v1.6c0,0.2-0.2,0.3-0.3,0.3h-0.7c-0.2,0-0.3-0.2-0.3-0.3v-1.6c-0.2-0.2-0.3-0.4-0.3-0.7c0-0.5,0.4-0.9,0.9-0.9c0.1,0,0.2,0,0.2,0
	c0.5,0,0.9,0.4,0.9,0.9C17.6,18.4,17.5,18.6,17.3,18.8z M18.7,15.4h-4.1l0-1c0-0.9,0.6-1.8,1.5-2.1c1.4-0.4,2.6,0.7,2.6,2V15.4z"/>
<path class="st0" d="M18.4,5.6C14.1,5,10.3,7,8,10.1L7.4,8.7C7.1,8.2,6.5,8,5.9,8.2l0,0C5.4,8.5,5.1,9.1,5.4,9.7l1.3,2.8L7,13h1.7
	c1.3-3.2,4.4-5.4,8.1-5.5c4.9-0.1,9.1,3.9,9.2,8.7c0.1,5.1-3.9,9.3-9,9.3c-3.1,0-5.9-1.6-7.5-4C9.3,21.2,9,21,8.6,21h0
	c-0.8,0-1.3,0.9-0.8,1.6c2,3,5.3,4.9,9.2,4.9c6.5,0,11.7-5.6,10.9-12.3C27.3,10.3,23.3,6.2,18.4,5.6z"/>
</svg>
