<?xml version="1.0" encoding="utf-8"?>
<!-- Generator: Adobe Illustrator 21.0.2, SVG Export Plug-In . SVG Version: 6.00 Build 0)  -->
<svg version="1.1" id="Layer_1" xmlns="http://www.w3.org/2000/svg" xmlns:xlink="http://www.w3.org/1999/xlink" x="0px" y="0px"
	 viewBox="0 0 64 64" style="enable-background:new 0 0 64 64;" xml:space="preserve">
<style type="text/css">
	.st0{display:none;}
	.st1{fill:#FCB74C;}
	.st2{display:inline;}
	.st3{clip-path:url(#SVGID_2_);fill-rule:evenodd;clip-rule:evenodd;}
</style>
<path class="st0" d="M-48.3,7.4l-8-16.9l-8,16.9L-74.5-9.5l2.3,37.5h31.9L-38-9.5L-48.3,7.4z M-48.3,7.4"/>
<g>
	<circle class="st1" cx="26.3" cy="25.5" r="3"/>
	<path class="st1" d="M22.4,41.4c-0.7,0.7,0.4,1.7,1.1,1.1c4.7-4.8,12.3-4.9,17-0.1c0.7,0.7,1.7-0.4,1.1-1.1
		C36.3,35.9,27.7,36,22.4,41.4z"/>
	<path class="st1" d="M58.2,1H5.8C3.2,1,1,3.2,1,5.8v52.3C1,60.8,3.2,63,5.8,63h52.3c2.7,0,4.8-2.2,4.8-4.8V5.8
		C63,3.2,60.8,1,58.2,1z M32,50.9c-10.4,0-18.9-8.4-18.9-18.9c0-10.4,8.4-18.9,18.9-18.9S50.9,21.6,50.9,32
		C50.9,42.4,42.4,50.9,32,50.9z"/>
	<circle class="st1" cx="37.5" cy="25.5" r="3"/>
</g>
<g class="st0">
	<g class="st2">
		<defs>
			<rect id="SVGID_1_" x="-138" y="-202.5" width="64.5" height="64.5"/>
		</defs>
		<clipPath id="SVGID_2_">
			<use xlink:href="#SVGID_1_"  style="overflow:visible;"/>
		</clipPath>
		<path class="st3" d="M-136.2-147.4c-2.1,2.1-2.1,5.5,0,7.6c2.1,2.1,5.5,2.1,7.6,0l14-14c0.1-0.1,0.1-0.2,0.2-0.2
			c4.2,2.7,9.2,4.3,14.5,4.3c14.6,0,26.4-11.8,26.4-26.4c0-14.6-11.8-26.4-26.4-26.4s-26.4,11.8-26.4,26.4c0,5.4,1.6,10.4,4.3,14.5
			c-0.1,0.1-0.2,0.1-0.2,0.2L-136.2-147.4L-136.2-147.4z M-100-158.8c-9.5,0-17.3-7.7-17.3-17.3c0-9.5,7.7-17.3,17.3-17.3
			s17.3,7.7,17.3,17.3C-82.7-166.5-90.4-158.8-100-158.8L-100-158.8z M-100-158.8"/>
	</g>
</g>
<g class="st0">
	<path class="st2" d="M-208-92.7c2.2,0,4.2-1.2,5.3-3h-10.5C-212.2-93.9-210.2-92.7-208-92.7L-208-92.7z M-208-92.7"/>
	<path class="st2" d="M-192.9-117h-30.4c-0.8,0-1.5,0.7-1.5,1.5v16.5c0,9.2,7.6,16.9,16.8,16.9c9.2,0,16.6-7.7,16.7-16.9
		c0,0,0-16.6,0-16.6C-191.4-116.3-192-117-192.9-117L-192.9-117z M-218.7-106.4c0-2.5,2-4.5,4.5-4.5c2.5,0,4.5,2,4.5,4.5
		c0,0.8-0.7,1.5-1.5,1.5c-0.8,0-1.5-0.7-1.5-1.5c0-0.8-0.7-1.5-1.5-1.5s-1.5,0.7-1.5,1.5c0,0.8-0.7,1.5-1.5,1.5
		C-218-104.8-218.7-105.5-218.7-106.4L-218.7-106.4z M-208-89.7c-4.3,0-8.1-3.1-8.9-7.3c-0.2-0.9,0.5-1.8,1.5-1.8h14.9
		c1,0,1.7,0.9,1.5,1.8C-200-92.7-203.7-89.7-208-89.7L-208-89.7z M-198.9-104.8c-0.8,0-1.5-0.7-1.5-1.5c0-0.8-0.7-1.5-1.5-1.5
		s-1.5,0.7-1.5,1.5c0,0.8-0.7,1.5-1.5,1.5s-1.5-0.7-1.5-1.5c0-2.5,2-4.5,4.5-4.5c2.5,0,4.5,2,4.5,4.5
		C-197.4-105.5-198.1-104.8-198.9-104.8L-198.9-104.8z M-198.9-104.8"/>
	<path class="st2" d="M-174.6-133.8H-205c-0.8,0-1.5,0.7-1.5,1.5v12.2h14.3c1.9,0,3.4,1.4,3.7,3.2c3.7,0.6,6.8,3.4,7.5,7.2
		c0.2,0.9-0.5,1.8-1.5,1.8h-5.9v8.9c8.5-0.8,15.2-7.9,15.3-16.5c0,0,0-16.7,0-16.7C-173.1-133.1-173.7-133.8-174.6-133.8
		L-174.6-133.8z M-195.9-121.5c-2.5,0-4.5-2-4.5-4.5c0-0.8,0.7-1.5,1.5-1.5c0.8,0,1.5,0.7,1.5,1.5c0,0.8,0.7,1.5,1.5,1.5
		s1.5-0.7,1.5-1.5c0-0.8,0.7-1.5,1.5-1.5c0.8,0,1.5,0.7,1.5,1.5C-191.4-123.6-193.4-121.5-195.9-121.5L-195.9-121.5z M-183.8-121.5
		c-2.5,0-4.5-2-4.5-4.5c0-0.8,0.7-1.5,1.5-1.5s1.5,0.7,1.5,1.5c0,0.8,0.7,1.5,1.5,1.5s1.5-0.7,1.5-1.5c0-0.8,0.7-1.5,1.5-1.5
		s1.5,0.7,1.5,1.5C-179.2-123.6-181.3-121.5-183.8-121.5L-183.8-121.5z M-183.8-121.5"/>
	<path class="st2" d="M-188.3-113.7v2.8h3.7C-185.4-112.3-186.8-113.3-188.3-113.7L-188.3-113.7z M-188.3-113.7"/>
</g>
<path class="st0" d="M-34.9,4.5L-41.8-4v-12.8h-4.6v7.1l-6.9-8.5L-71.6,4.5v1.4h4.6v14.2h11.5v-8.5h4.6v8.5h11.5V5.9h4.6V4.5z
	 M-34.9,4.5"/>
<path class="st0" d="M-327-51.8c-2,0-4.1,0.1-6.1,0c-1.8-0.1-3-1.4-3.2-3.2c-0.2-1.8,0.8-3.4,2.5-3.9c0.6-0.2,1.2-0.2,1.7-0.2
	c3.6,0,7.2,0,10.8,0c1.2,0,1.3-0.1,1.3-1.3c0-3.7,0-7.5,0-11.2c0-2.5,1.8-4.1,4.1-3.8c1.6,0.2,2.9,1.4,3.1,3
	c0.1,0.9,0.1,1.8,0.1,2.7c0,3.1,0,6.3,0,9.4c0,1.1,0.1,1.2,1.2,1.2c3.6,0,7.3,0,10.9,0c0.6,0,1.2,0,1.7,0.2c1.7,0.5,2.6,2.1,2.5,3.9
	c-0.2,1.7-1.5,3.1-3.2,3.2c-2,0.1-4,0.1-6.1,0.1c-1.9,0-3.8,0-5.8,0c-1.2,0-1.3,0.1-1.3,1.3c0,3.6,0,7.3,0,10.9
	c0,0.9-0.3,1.9-0.7,2.6c-0.7,1.3-2.4,1.8-3.9,1.4c-1.4-0.4-2.5-1.6-2.6-3.1c-0.1-1.7-0.1-3.4-0.1-5c0-2.3,0-4.6,0-6.9
	c0-0.9-0.3-1.2-1.2-1.2C-323.1-51.7-325.1-51.7-327-51.8C-327-51.8-327-51.8-327-51.8z"/>
<g class="st0">
	<g class="st2">
		<path d="M-110.7,67.7c0,2.3,1.9,4.3,4.3,4.3h30.8V70h-2v-4.7h2v-0.8h2.4v-1.9h-1.4v-4.7h1.4V56h-1.5v-1.6l-2.3-4.4h2.5v-2.5
			l-6.2-7.5h-21.8l-5.6,8.8c-1,0.8-1.6,2-1.6,3.3c0,2.3,1.9,4.2,4.2,4.3c-1.6,0.6-2.7,2.2-2.7,3.9c0,1.3,0.6,2.4,1.5,3.2
			C-109,63.7-110.7,65.5-110.7,67.7L-110.7,67.7z M-108,52c0-0.9,0.5-1.6,1.2-2.1h28.2v4.4h-27.1C-106.9,54.4-108,53.3-108,52
			L-108,52z M-104.1,57.9h27.5v4.7h-27.5c-1.3,0-2.4-1.1-2.4-2.4C-106.5,58.9-105.4,57.9-104.1,57.9L-104.1,57.9z M-106.5,65.3h27
			V70h-27c-1.3,0-2.4-1.1-2.4-2.4S-107.8,65.3-106.5,65.3L-106.5,65.3z M-106.5,65.3"/>
	</g>
</g>
<g class="st0">
	<path class="st2" d="M-7.3-74.8C-7.3-74.8-7.3-74.8-7.3-74.8c-1.2-0.3-4.7-0.7-4.7-0.7c-0.4-0.1-0.8,0.1-1,0.4l-5.3,13.3
		c-0.3,0.8-1.5,0.8-1.8,0l-5.3-13.3c-0.1-0.3-0.4-0.5-0.7-0.5c-0.1,0-3.7,0.5-4.9,0.7c-3.3,0.8-5.4,3.7-5.4,6.8v11.1
		c0,1.7,1.5,3,3.3,3h28.1c1.8,0,3.3-1.3,3.3-3V-68C-1.9-71.1-4.1-73.8-7.3-74.8L-7.3-74.8z M-7.3-74.8"/>
	<path class="st2" d="M-17.2-73.5c-0.2-0.2-0.6-0.3-0.9-0.3h-2.5c-0.3,0-0.7,0.1-0.9,0.3c-0.3,0.3-0.4,0.8-0.2,1.1l1.3,1.6l-0.6,4.2
		l1.2,2.6c0.1,0.3,0.6,0.3,0.7,0l1.2-2.6l-0.6-4.2l1.3-1.6C-16.8-72.7-16.8-73.2-17.2-73.5L-17.2-73.5z M-17.2-73.5"/>
	<ellipse class="st2" cx="-19.5" cy="-82.2" rx="7.7" ry="8"/>
</g>
</svg>
