<?xml version="1.0" encoding="utf-8"?>
<!-- Generator: Adobe Illustrator 21.0.2, SVG Export Plug-In . SVG Version: 6.00 Build 0)  -->
<svg version="1.1" id="Layer_1" xmlns="http://www.w3.org/2000/svg" xmlns:xlink="http://www.w3.org/1999/xlink" x="0px" y="0px"
	 viewBox="0 0 64 64" style="enable-background:new 0 0 64 64;" xml:space="preserve">
<style type="text/css">
	.st0{fill:#2A3D94;}
</style>
<g>
	<path class="st0" d="M31.7,12.7C18,12.7,6.3,20.6,0.8,32c-0.2,0.3-0.2,0.8,0,1.1C6.3,44.6,18,52.5,31.7,52.5
		c13.7,0,25.4-7.9,30.8-19.3c0.2-0.3,0.2-0.8,0-1.1C57.1,20.6,45.4,12.7,31.7,12.7L31.7,12.7z M31.7,46.3c-7.7,0-14-6.1-14-13.7
		c0-7.6,6.3-13.7,14-13.7c7.7,0,14,6.1,14,13.7C45.7,40.2,39.4,46.3,31.7,46.3L31.7,46.3z M31.7,46.3"/>
</g>
<path class="st0" d="M40.6,32.6c0,4.9-4,8.8-8.9,8.8c-4.9,0-8.9-3.9-8.9-8.8c0-4.9,4-8.8,8.9-8.8C36.6,23.8,40.6,27.8,40.6,32.6
	L40.6,32.6z M40.6,32.6"/>
</svg>
