<?xml version="1.0" encoding="utf-8"?>
<!-- Generator: Adobe Illustrator 23.0.3, SVG Export Plug-In . SVG Version: 6.00 Build 0)  -->
<svg version="1.1" id="Layer_1" xmlns="http://www.w3.org/2000/svg" xmlns:xlink="http://www.w3.org/1999/xlink" x="0px" y="0px"
	 viewBox="0 0 64 64" style="enable-background:new 0 0 64 64;" xml:space="preserve">
<style type="text/css">
	.st0{fill:#FFFFFF;}
</style>
<g>
	<path class="st0" d="M32.2,39.4c-4.2,0-7.7-3.3-7.7-7.3s3.5-7.3,7.7-7.3h10.3V5.4c0-1.3-1.1-2.4-2.6-2.4H4C2.6,2.9,1.4,4,1.4,5.4
		v53.5c0,1.3,1.1,2.4,2.6,2.4h35.9c1.4,0,2.6-1.1,2.6-2.4v-17v-2.4H32.2z"/>
	<path class="st0" d="M60.4,34.6H32.2c-1.4,0-2.6-1.1-2.6-2.4c0-1.3,1.1-2.4,2.6-2.4h28.2c1.4,0,2.6,1.1,2.6,2.4
		C63,33.5,61.9,34.6,60.4,34.6"/>
	<path class="st0" d="M60.4,34.6c-0.7,0-1.3-0.2-1.8-0.7l-10.3-9.7c-1-1-1-2.5,0-3.4c1-1,2.6-1,3.6,0l10.3,9.7c1,1,1,2.5,0,3.4
		C61.7,34.3,61.1,34.6,60.4,34.6"/>
	<path class="st0" d="M50.2,44.3c-0.7,0-1.3-0.2-1.8-0.7c-1-1-1-2.5,0-3.4l10.3-9.7c1-1,2.6-1,3.6,0s1,2.5,0,3.4L52,43.6
		C51.5,44,50.8,44.3,50.2,44.3"/>
</g>
</svg>
