<?xml version="1.0" encoding="utf-8"?>
<!-- Generator: Adobe Illustrator 21.0.2, SVG Export Plug-In . SVG Version: 6.00 Build 0)  -->
<svg version="1.1" id="Layer_1" xmlns="http://www.w3.org/2000/svg" xmlns:xlink="http://www.w3.org/1999/xlink" x="0px" y="0px"
	 viewBox="0 0 64 64" style="enable-background:new 0 0 64 64;" xml:space="preserve">
<style type="text/css">
	.st0{fill:#FFFFFF;}
</style>
<path class="st0" d="M2,24.9h3c0,0,0,0,0,0v-2.9c0,0,0,0,0,0H2c0,0,0,0,0,0L2,24.9C2,24.9,2,24.9,2,24.9z"/>
<path class="st0" d="M2,30.9h3c0,0,0,0,0,0v-2.9c0,0,0,0,0,0H2c0,0,0,0,0,0L2,30.9C2,30.9,2,30.9,2,30.9z"/>
<path class="st0" d="M2,19h3c0,0,0,0,0,0v-2.9c0,0,0,0,0,0H2c0,0,0,0,0,0L2,19C2,19,2,19,2,19z"/>
<path class="st0" d="M54.2,1H10.8C6,1,2,5.1,2,10.1V13c0,0,0,0,0,0h3c0,0,0,0,0,0v-2.9c0-3.3,2.6-6,5.8-6h43.3c3.2,0,5.8,2.7,5.8,6
	v50.7H10.8c-3.2,0-5.8-2.7-5.8-6v-8.8c0,0,0,0,0,0H2c0,0,0,0,0,0v8.8c0,5,4,9.1,8.8,9.1H63V10.1C63,5.1,59,1,54.2,1z"/>
<path class="st0" d="M2,42.9h3c0,0,0,0,0,0V40c0,0,0,0,0,0H2c0,0,0,0,0,0L2,42.9C2,42.9,2,42.9,2,42.9z"/>
<path class="st0" d="M2,36.9h3c0,0,0,0,0,0v-2.9c0,0,0,0,0,0H2c0,0,0,0,0,0L2,36.9C2,36.9,2,36.9,2,36.9z"/>
<g>
	<path class="st0" d="M38.2,62l22.9,0.1V38.2c-3.4,1.7-8.6,4.7-13.6,9.9C42.4,53.3,39.7,58.6,38.2,62z"/>
</g>
<path class="st0" d="M5,9.7v40.1C5.7,49.9,6.5,50,7.3,50c7.9,0,14.2-6.5,14.2-14.6c0-0.2,0-0.4,0-0.5c7.2-0.7,12.9-6.9,12.9-14.5
	c0-0.8-0.1-1.6-0.2-2.4c0.2,0,0.4,0,0.7,0c7.7,0,14-6.3,14.2-14.1H10.7C7.5,4,5,6.5,5,9.7z"/>
</svg>
