<?xml version="1.0" encoding="utf-8"?>
<!-- Generator: Adobe Illustrator 23.0.3, SVG Export Plug-In . SVG Version: 6.00 Build 0)  -->
<svg version="1.1" id="Layer_1" xmlns="http://www.w3.org/2000/svg" xmlns:xlink="http://www.w3.org/1999/xlink" x="0px" y="0px"
	 viewBox="0 0 64 64" style="enable-background:new 0 0 64 64;" xml:space="preserve">
<style type="text/css">
	.st0{fill:#0E8298;}
	.st1{fill:#DFFF5A;}
</style>
<g>
	<g>
		<path class="st0" d="M22,18.1h2c0,0,0,0,0,0v-1.9c0,0,0,0,0,0h-2c0,0,0,0,0,0L22,18.1C22,18.1,22,18.1,22,18.1z"/>
		<path class="st0" d="M22,22.1h2c0,0,0,0,0,0v-1.9c0,0,0,0,0,0h-2c0,0,0,0,0,0L22,22.1C22,22.1,22,22.1,22,22.1z"/>
		<path class="st0" d="M22,14.1h2c0,0,0,0,0,0v-1.9c0,0,0,0,0,0h-2c0,0,0,0,0,0L22,14.1C22,14.1,22,14.1,22,14.1z"/>
		<path class="st0" d="M56.9,2h-29C24.6,2,22,4.8,22,8.1v1.9c0,0,0,0,0,0h2c0,0,0,0,0,0V8.1c0-2.2,1.7-4,3.9-4h29
			c2.1,0,3.9,1.8,3.9,4v34H27.9c-2.1,0-3.9-1.8-3.9-4v-5.9c0,0,0,0,0,0h-2c0,0,0,0,0,0v5.9c0,3.4,2.7,6.1,5.9,6.1h35V8.1
			C62.8,4.8,60.2,2,56.9,2z"/>
		<path class="st0" d="M22,30.1h2c0,0,0,0,0,0v-2c0,0,0,0,0,0h-2c0,0,0,0,0,0L22,30.1C22,30.1,22,30.1,22,30.1z"/>
		<path class="st0" d="M22,26.1h2c0,0,0,0,0,0v-1.9c0,0,0,0,0,0h-2c0,0,0,0,0,0L22,26.1C22,26.1,22,26.1,22,26.1z"/>
	</g>
	<path class="st0" d="M46.2,42.9L61.6,43v-16c-2.3,1.1-5.8,3.1-9.1,6.6C49.1,37,47.2,40.6,46.2,42.9z"/>
	<path class="st1" d="M24,7.8v26.9c0.5,0.1,1,0.1,1.5,0.1c5.3,0,9.5-4.4,9.5-9.8c0-0.1,0-0.2,0-0.4c4.8-0.5,8.6-4.6,8.6-9.7
		c0-0.5-0.1-1.1-0.1-1.6c0.1,0,0.3,0,0.4,0c5.2,0,9.4-4.2,9.5-9.5H27.8C25.7,4,24,5.7,24,7.8z"/>
</g>
<path class="st1" d="M19.7,2.6v8.7c0,1.9-0.5,3.4-1.5,4.4c-1,1-2.4,1.5-4.3,1.5c-1.8,0-3.2-0.5-4.3-1.6c-1-1-1.6-2.6-1.6-4.5V6H1.5
	V2.6H19.7z M10.9,11c0,0.9,0.3,1.6,0.8,2.1c0.5,0.5,1.3,0.7,2.2,0.7c0.9,0,1.6-0.2,2.1-0.7c0.5-0.5,0.8-1.2,0.8-2.1V6h-5.9V11z"/>
<path class="st1" d="M15.4,20.2v2.6l-2.2,0.3v0.2c1.7,0.6,2.5,1.7,2.5,3.1c0,0.3,0,0.6-0.1,0.8c-0.1,0.2-0.1,0.4-0.1,0.5h-3v-1
	c0-2.2-1.3-3.4-3.8-3.4H1.5v-3.2H15.4z"/>
<path class="st1" d="M3,30.8c1.2-1.1,3-1.7,5.5-1.7c2.5,0,4.3,0.6,5.5,1.7c1.2,1.1,1.8,2.9,1.8,5.1c0,2.3-0.6,4-1.8,5.1
	c-1.2,1.1-3,1.7-5.5,1.7c-2.5,0-4.3-0.6-5.5-1.7C1.8,40,1.2,38.3,1.2,36C1.2,33.7,1.8,32,3,30.8z M4.9,38.7c0.7,0.6,1.9,0.8,3.4,0.8
	h0.4c1.5,0,2.7-0.3,3.4-0.8c0.7-0.6,1.1-1.5,1.1-2.7c0-1.3-0.4-2.2-1.1-2.7c-0.7-0.6-1.9-0.8-3.4-0.8H8.3c-1.5,0-2.7,0.3-3.4,0.8
	c-0.7,0.6-1.1,1.5-1.1,2.7C3.8,37.2,4.2,38.1,4.9,38.7z"/>
<path class="st0" d="M1.2,46.1h9.7c1,0,1.8,0.2,2.6,0.5s1.4,0.8,1.8,1.4c0.4,0.6,0.6,1.3,0.6,2.1c0,0.9-0.3,1.7-0.8,2.4
	c-0.5,0.7-1.3,1.1-2.1,1.4v0.1c1,0.2,1.8,0.7,2.5,1.4c0.6,0.7,1,1.6,1,2.7c0,1.5-0.5,2.6-1.5,3.4c-1,0.8-2.3,1.2-4,1.2H1.2V46.1z
	 M10,52.9c0.8,0,1.4-0.2,1.8-0.6c0.4-0.4,0.7-0.9,0.7-1.5c0-0.7-0.2-1.2-0.6-1.6c-0.4-0.4-1-0.5-1.6-0.5H4.5v4.2H10z M10.4,60
	c0.8,0,1.4-0.2,1.8-0.6c0.5-0.4,0.7-1,0.7-1.7c0-0.7-0.2-1.3-0.7-1.7c-0.5-0.4-1.1-0.6-2-0.6H4.5V60H10.4z"/>
<path class="st0" d="M20.3,61.4c-1.1-1.1-1.7-2.8-1.7-5c0-2.3,0.6-4,1.7-5c1.1-1.1,2.8-1.6,5.1-1.6s4,0.5,5.1,1.6
	c1.1,1.1,1.7,2.8,1.7,5c0,2.3-0.6,4-1.7,5c-1.1,1.1-2.8,1.6-5.1,1.6S21.5,62.4,20.3,61.4z M28.1,59.6c0.6-0.7,0.8-1.7,0.8-3.1v-0.3
	c0-1.4-0.3-2.4-0.8-3.1c-0.6-0.7-1.5-1-2.7-1c-1.3,0-2.2,0.3-2.7,1c-0.5,0.7-0.8,1.7-0.8,3.1v0.3c0,1.4,0.3,2.4,0.8,3.1
	c0.5,0.7,1.5,1,2.7,1C26.7,60.6,27.6,60.3,28.1,59.6z"/>
<path class="st0" d="M35.8,61.4c-1.1-1.1-1.7-2.8-1.7-5c0-2.3,0.6-4,1.7-5c1.1-1.1,2.8-1.6,5.1-1.6c2.3,0,4,0.5,5.1,1.6
	c1.1,1.1,1.7,2.8,1.7,5c0,2.3-0.6,4-1.7,5c-1.1,1.1-2.8,1.6-5.1,1.6C38.7,63,37,62.4,35.8,61.4z M43.6,59.6c0.6-0.7,0.8-1.7,0.8-3.1
	v-0.3c0-1.4-0.3-2.4-0.8-3.1c-0.6-0.7-1.5-1-2.7-1c-1.3,0-2.2,0.3-2.7,1c-0.5,0.7-0.8,1.7-0.8,3.1v0.3c0,1.4,0.3,2.4,0.8,3.1
	c0.5,0.7,1.5,1,2.7,1C42.2,60.6,43.1,60.3,43.6,59.6z"/>
<path class="st0" d="M50.5,45.2h3.1v10.3l5-5.5h3.7l-4.6,4.9l4.9,7.8H59L55.7,57l-2.1,1.8v3.8h-3.1V45.2z"/>
</svg>
