<?xml version="1.0" encoding="utf-8"?>
<!-- Generator: Adobe Illustrator 21.0.2, SVG Export Plug-In . SVG Version: 6.00 Build 0)  -->
<svg version="1.1" id="Layer_1" xmlns="http://www.w3.org/2000/svg" xmlns:xlink="http://www.w3.org/1999/xlink" x="0px" y="0px"
	 viewBox="0 0 64 64" style="enable-background:new 0 0 64 64;" xml:space="preserve">
<style type="text/css">
	.st0{fill:#FCB74B;}
</style>
<path class="st0" d="M58.2,1.4H5.8C3.2,1.4,1,3.6,1,6.2v51.6c0,2.6,2.2,4.8,4.8,4.8h52.3c2.7,0,4.8-2.1,4.8-4.8V6.2
	C63,3.6,60.8,1.4,58.2,1.4z M41.7,15.3c3,0,5.4,2.6,5.4,5.8c0,3.2-2.4,5.8-5.4,5.8c-0.8,0-1.6-0.2-2.3-0.5c-0.2-2.3-1.4-4.2-3.1-5.4
	C36.4,17.9,38.8,15.3,41.7,15.3z M32.8,21.3c3,0,5.4,2.6,5.4,5.8c0,3.2-2.4,5.8-5.4,5.8c-3,0-5.4-2.6-5.4-5.8
	C27.3,23.9,29.8,21.3,32.8,21.3z M23.3,15.3c3,0,5.4,2.6,5.4,5.8c0,0.1,0,0.2,0,0.3c-1.3,1.1-2.3,2.7-2.5,4.6
	c-0.8,0.6-1.8,0.9-2.9,0.9c-3,0-5.4-2.6-5.4-5.8S20.3,15.3,23.3,15.3z M22.2,42.6C20,42.5,17.3,42,14.4,41L14,40.9l0-0.1v-6
	c0-4.1,3.1-7.4,6.9-7.4h4.6c0.2,0,0.3,0,0.5,0c0.1,1.9,0.8,3.7,2.1,5c-3.4,1.1-5.9,4.5-5.9,8.5V42.6z M42,46.8L42,46.8L41.6,47
	c-0.2,0.1-3.1,1.7-8.2,1.7c-2.6,0-5.8-0.4-9.4-1.6l-0.4-0.1l0-0.1v-6c0-4.1,3.1-7.4,6.9-7.4h4.6c3.8,0,6.9,3.3,6.9,7.4V46.8z
	 M51,40.8L51,40.8L50.6,41c-0.2,0.1-2.8,1.5-7.3,1.6v-1.9c0-4-2.5-7.4-5.9-8.5c1.2-1.3,2-3,2.1-5h4.6c3.8,0,6.9,3.3,6.9,7.4V40.8z"
	/>
</svg>
